<?xml version="1.0" standalone="no"?><!-- Generator: Gravit.io --><svg xmlns="http://www.w3.org/2000/svg" xmlns:xlink="http://www.w3.org/1999/xlink" style="isolation:isolate" viewBox="0 0 59.25 59.25" width="59.25" height="59.25"><defs><clipPath id="_clipPath_dmnKp6nyhOYD9WRWG6UjOpG0xfJxjo7W"><rect width="59.25" height="59.25"/></clipPath></defs><g clip-path="url(#_clipPath_dmnKp6nyhOYD9WRWG6UjOpG0xfJxjo7W)"><g><path d=" M 1.275 26.475 C -0.425 28.175 -0.425 31.075 1.275 32.775 L 11.275 42.775 L 17.975 36.075 L 23.275 41.375 L 16.475 47.975 L 26.475 57.975 C 28.175 59.675 31.075 59.675 32.775 57.975 L 42.775 47.975 L 11.275 16.475 L 1.275 26.475 L 1.275 26.475 Z " fill="rgb(51,51,51)"/><path d=" M 16.475 11.275 L 47.975 42.775 L 57.975 32.775 C 59.675 31.075 59.675 28.175 57.975 26.475 L 32.775 1.275 C 31.075 -0.425 28.175 -0.425 26.475 1.275 L 16.475 11.275 L 16.475 11.275 Z " fill="rgb(129,196,237)"/></g></g></svg>