<svg width="232" height="64" viewBox="0 0 232 64" xmlns="http://www.w3.org/2000/svg"><title>logo</title><path class="site-logo-bottom" d="M1.382 28.418c-1.842 1.842-1.842 4.83 0 6.672l10.563 10.563 7.117-7.116 5.56 5.56-7.117 7.116 10.563 10.563c1.843 1.842 4.83 1.843 6.672 0l10.564-10.563-33.358-33.358-10.563 10.564z" fill="#fff"/><path d="M17.504 12.295l33.358 33.358 10.564-10.564c1.842-1.842 1.842-4.83-.001-6.672l-26.687-26.687c-1.842-1.842-4.829-1.842-6.671 0l-10.564 10.564z" fill="#81C4ED"/><path class="site-logo-text" d="M90.611 33.558h-10.218v-8.307h10.803v-2.847h-14.196v26.286h14.781v-2.847h-11.388v-9.477h10.218v-2.808zm4.034-8.268v4.524h-2.925v2.613h2.925v10.296c0 2.223.351 3.9 1.326 4.914.819.936 2.106 1.443 3.705 1.443 1.326 0 2.379-.195 3.042-.468l-.156-2.574c-.429.117-1.092.234-1.989.234-1.911 0-2.574-1.326-2.574-3.666v-10.179h4.914v-2.613h-4.914v-5.421l-3.354.897zm17.801 4.095c-5.226 0-9.36 3.705-9.36 10.023 0 5.967 3.939 9.711 9.048 9.711 4.563 0 9.399-3.042 9.399-10.023 0-5.772-3.666-9.711-9.087-9.711zm-.078 2.574c4.056 0 5.655 4.056 5.655 7.254 0 4.251-2.457 7.332-5.733 7.332-3.354 0-5.733-3.12-5.733-7.254 0-3.588 1.755-7.332 5.811-7.332zm11.405 16.731h3.432v-11.349c0-.585.078-1.17.234-1.599.585-1.911 2.34-3.51 4.602-3.51 3.237 0 4.368 2.535 4.368 5.577v10.881h3.432v-11.271c0-6.474-4.056-8.034-6.669-8.034-3.12 0-5.304 1.755-6.24 3.549h-.078l-.195-3.12h-3.042c.117 1.56.156 3.159.156 5.109v13.767zm19.673-.078c1.716.195 3.744.312 6.162.312 5.109 0 9.165-1.326 11.622-3.783 2.457-2.418 3.783-5.928 3.783-10.218 0-4.251-1.365-7.293-3.705-9.438-2.301-2.145-5.772-3.276-10.647-3.276-2.691 0-5.148.234-7.215.546v25.857zm3.393-23.361c.897-.195 2.223-.351 3.978-.351 7.176 0 10.686 3.939 10.647 10.14 0 7.098-3.939 11.154-11.193 11.154-1.326 0-2.574-.039-3.432-.195v-20.748zm23.807 23.439v-18.876h-3.432v18.876h3.432zm-1.716-26.325c-1.248 0-2.145.936-2.145 2.145 0 1.17.858 2.106 2.067 2.106 1.365 0 2.223-.936 2.184-2.106 0-1.209-.819-2.145-2.106-2.145zm18.581 7.449l-.156 2.847h-.078c-.819-1.56-2.613-3.276-5.889-3.276-4.329 0-8.502 3.627-8.502 10.023 0 5.226 3.354 9.204 8.034 9.204 2.925 0 4.953-1.404 6.006-3.159h.078v2.106c0 4.758-2.574 6.591-6.084 6.591-2.34 0-4.29-.702-5.538-1.482l-.858 2.613c1.521 1.014 4.017 1.56 6.279 1.56 2.379 0 5.031-.546 6.864-2.262 1.833-1.638 2.691-4.29 2.691-8.619v-10.959c0-2.301.078-3.822.156-5.187h-3.003zm-.546 10.842c0 .585-.078 1.248-.273 1.833-.741 2.184-2.652 3.51-4.758 3.51-3.705 0-5.577-3.081-5.577-6.786 0-4.368 2.34-7.137 5.616-7.137 2.496 0 4.173 1.638 4.797 3.627.156.468.195.975.195 1.56v3.393zm10.196 8.034v-18.876h-3.432v18.876h3.432zm-1.716-26.325c-1.248 0-2.145.936-2.145 2.145 0 1.17.858 2.106 2.067 2.106 1.365 0 2.223-.936 2.184-2.106 0-1.209-.819-2.145-2.106-2.145zm6.101 2.925v4.524h-2.925v2.613h2.925v10.296c0 2.223.351 3.9 1.326 4.914.819.936 2.106 1.443 3.705 1.443 1.326 0 2.379-.195 3.042-.468l-.156-2.574c-.429.117-1.092.234-1.989.234-1.911 0-2.574-1.326-2.574-3.666v-10.179h4.914v-2.613h-4.914v-5.421l-3.354.897zm23.612 23.4c-.234-1.287-.312-2.886-.312-4.524v-7.059c0-3.783-1.404-7.722-7.176-7.722-2.379 0-4.641.663-6.201 1.677l.78 2.262c1.326-.858 3.159-1.404 4.914-1.404 3.861 0 4.29 2.808 4.29 4.368v.39c-7.293-.039-11.349 2.457-11.349 7.02 0 2.73 1.95 5.421 5.772 5.421 2.691 0 4.719-1.326 5.772-2.808h.117l.273 2.379h3.12zm-3.627-6.357c0 .351-.078.741-.195 1.092-.546 1.599-2.106 3.159-4.563 3.159-1.755 0-3.237-1.053-3.237-3.276 0-3.666 4.251-4.329 7.995-4.251v3.276zm6.764 6.357h3.432v-27.69h-3.432v27.69z" fill="#fff"/></svg>