<svg xmlns="http://www.w3.org/2000/svg" width="512pt" height="512pt" viewBox="-66 0 512 512"><path d="M340 197.008V150C340 67.29 272.71 0 190 0S40 67.29 40 150v47.008C17.203 201.652 0 221.855 0 246v56.77c0 5.523 4.477 10 10 10s10-4.477 10-10V246c0-16.543 13.457-30 30-30h280c16.543 0 30 13.457 30 30v216c0 13.035-8.36 24.152-20 28.281V430c0-5.523-4.477-10-10-10s-10 4.477-10 10v62H50c-16.543 0-30-13.457-30-30v-79c0-5.523-4.477-10-10-10s-10 4.477-10 10v79c0 27.57 22.43 50 50 50h280c27.57 0 50-22.43 50-50V246c0-24.145-17.203-44.348-40-48.992zM114 196v-46c0-41.906 34.094-76 76-76s76 34.094 76 76v46zm172 0v-46c0-52.934-43.066-96-96-96s-96 43.066-96 96v46H60v-46c0-71.684 58.316-130 130-130s130 58.316 130 130v46zm0 0"/><path d="M10 352.488a10.06 10.06 0 0 0 7.07-2.93 10.073 10.073 0 0 0 2.93-7.07c0-2.629-1.07-5.21-2.93-7.066a10.067 10.067 0 0 0-7.07-2.934c-2.629 0-5.21 1.07-7.07 2.934A10.064 10.064 0 0 0 0 342.488c0 2.633 1.07 5.211 2.93 7.07a10.063 10.063 0 0 0 7.07 2.93zM190 458c16.543 0 30-13.457 30-30v-53.102c15.023-9.945 24.129-26.664 24.129-44.984 0-29.773-24.227-54-54-54-29.777 0-54 24.227-54 54 0 18.188 9.004 34.844 23.871 44.813V428c0 16.543 13.457 30 30 30zm-33.871-128.086c0-18.75 15.25-34 34-34 18.746 0 34 15.25 34 34 0 12.875-7.149 24.496-18.652 30.336a9.996 9.996 0 0 0-5.477 8.918V428c0 5.516-4.484 10-10 10s-10-4.484-10-10v-58.965a9.997 9.997 0 0 0-5.418-8.887c-11.383-5.867-18.453-17.453-18.453-30.234zM330 399c2.64 0 5.21-1.07 7.07-2.93 1.86-1.86 2.93-4.43 2.93-7.07 0-2.64-1.07-5.21-2.93-7.07A10.059 10.059 0 0 0 330 379a10.08 10.08 0 0 0-7.07 2.93A10.08 10.08 0 0 0 320 389c0 2.629 1.07 5.21 2.93 7.07A10.08 10.08 0 0 0 330 399zm0 0"/></svg>